<svg xmlns="http://www.w3.org/2000/svg" width="64" height="64" id="rose"><path fill="#42a555" d="M28.985 38.197a4.49 4.49 0 1 0-2.324 8.676c2.395.642 9.838-2.013 9.838-2.013s-5.118-6.021-7.514-6.663zM10.79 43.703a4.49 4.49 0 1 0 8.676-2.324c-.642-2.396-6.663-7.514-6.663-7.514s-2.655 7.443-2.013 9.838z"></path><path fill="#427451" d="M14.79 40.446a1 1 0 0 0-.902 1.328l1.66 4.935a1 1 0 0 0 .126.27c.205-.027.411-.043.617-.099.445-.12.84-.318 1.211-.55a1 1 0 0 0-.058-.258l-1.66-4.935a1 1 0 0 0-.993-.692zm9.069-.004a4.492 4.492 0 0 0-.375.93 4.48 4.48 0 0 0-.14 1l5.305 1.422a1.001 1.001 0 1 0 .52-1.934l-5.31-1.418z"></path><path fill="none" stroke="#444e66" stroke-linecap="round" stroke-linejoin="round" stroke-width="2" d="M30.825 33.188 7.007 57.006"></path><path fill="#353c4d" fill-rule="evenodd" d="M-919.107 3948.427a.5.5 0 0 0-.002 0 .5.5 0 0 0-.344.152l-.69.69c.216.254.453.49.707.707l.69-.69a.5.5 0 0 0-.361-.861z" color="#000" font-family="sans-serif" font-weight="400" overflow="visible" style="line-height:normal;text-indent:0;text-align:start;text-decoration-line:none;text-decoration-style:solid;text-decoration-color:#000;text-transform:none;block-progression:tb;white-space:normal;isolation:auto;mix-blend-mode:normal;solid-color:#000;solid-opacity:1" transform="translate(1869.392 -7866.258) scale(2.0004)"></path><path fill="#ff143a" d="M42.706 7.017c.052.044.09.1.141.144-.039-.048-.069-.1-.113-.144h-.028zm.141.144c.729.891.551 2.337-.457 3.345l-1.254 1.258-3.97-3.97-.23-.23c.02.02.032.042.05.062a3.647 3.647 0 0 1 .77 1.223c.002 0 .002 0 .004.02a3.705 3.705 0 0 1 .23 1.375c0 .001 0 0 0 0 0 .024-.005.05-.007.074-.01.21-.034.421-.079.63a3.8 3.8 0 0 1-.21.667c-.003 0-.007.02-.009.02-.094.22-.21.436-.347.641h-.004c-.14.208-.304.405-.489.59l-6.106 6.107c-.008 0-.014.02-.024.028a9.91 9.91 0 0 0-2.801 5.74 10.052 10.052 0 0 0 .273 3.93 10.196 10.196 0 0 0 7.146 7.146c.184.05.37.074.555.114 3.309.705 6.75-.272 9.143-2.665l6.106-6.107c1.495-1.494 3.863-1.533 5.31-.086l-4.2-4.2 1.258-1.258c1.063-1.062 2.62-1.216 3.493-.344-1.469-1.468-3.305-2.46-5.294-2.946h.676c.103-.847.035-1.774-.102-2.629a17.593 17.593 0 0 0-.824-3.145s-.357-.136-.93-.309c-.573-.172-1.36-.38-2.215-.516-.669-.106-1.38-.17-2.063-.144l.02.66a12.572 12.572 0 0 0-3.419-5.086z"></path><path fill="#ff143a" d="M46.246 11.589c.683-.026 1.393.04 2.062.146a17.454 17.454 0 0 1 3.147.822s.137.36.308.932c.171.573.377 1.36.514 2.215.137.856.206 1.936.103 2.783l-2.471-.156-3.41-.248-.189-4.186z"></path><path fill="#ff143a" d="m40.587 12.31 1.803-1.803c1.063-1.062 1.216-2.62.344-3.491h-.027a12.62 12.62 0 0 1 3.11 14.895"></path><path fill="#ff143a" d="m51.702 23.426 1.803-1.804c1.063-1.062 2.62-1.215 3.492-.343H57c-2.571-2.572-6.254-3.734-9.95-3.142"></path><path fill="#ff143a" d="M36.934 7.564c1.447 1.447 1.409 3.815-.086 5.31l-6.512 6.512.405-.405a9.985 9.985 0 0 0-2.553 9.698 10.194 10.194 0 0 0 7.146 7.146 9.985 9.985 0 0 0 9.698-2.553l-.405.404 6.511-6.511c1.495-1.495 3.864-1.534 5.311-.086"></path><path fill="#ff143a" d="m40.587 12.31 1.803-1.803c1.063-1.062 1.216-2.62.344-3.491h-.027a12.62 12.62 0 0 1 3.11 14.895"></path><path fill="#d30045" d="M-916.045 3936.124c.01.01.016.02.025.03l.09.085zm.115.115c3.726 3.726 3.738 9.754.028 13.465a9.462 9.462 0 0 1-.666.604c.455.097.914.125 1.367.098a10.484 10.484 0 0 0 3.066-7.02c0-1.981-1.073-4.592-1.81-5.162zm.188.31zm.21 1.036c-.001.022-.006.043-.01.064.004-.022.009-.043.01-.064zm4.028.555.123.336c.335.93.567 2.041.122 3.985l.959.264.04-.192a9.175 9.175 0 0 0 .234-1.381 7.343 7.343 0 0 0-.398-2.952 5.555 5.555 0 0 0-1.08-.06z" color="#000" font-family="sans-serif" font-weight="400" overflow="visible" style="line-height:normal;text-indent:0;text-align:start;text-decoration-line:none;text-decoration-style:solid;text-decoration-color:#000;text-transform:none;block-progression:tb;white-space:normal;isolation:auto;mix-blend-mode:normal;solid-color:#000;solid-opacity:1" transform="translate(1869.392 -7866.258) scale(2.0004)"></path><path fill="#d30045" style="line-height:normal;text-indent:0;text-align:start;text-decoration-line:none;text-decoration-style:solid;text-decoration-color:#000;text-transform:none;block-progression:tb;white-space:normal;isolation:auto;mix-blend-mode:normal;solid-color:#000;solid-opacity:1" d="M-906.116 3946.053c-.01-.01-.021-.016-.031-.025l-.084-.09.115.116zm-.116-.115c-3.726-3.725-9.753-3.737-13.464-.027a9.468 9.468 0 0 0-.604.666 5.085 5.085 0 0 1-.098-1.367 10.484 10.484 0 0 1 7.02-3.067c2.542-.173 4.592 1.074 5.162 1.811l1.984 1.984zm-.31-.188zm-1.035-.21c-.022 0-.043.01-.064.01.022 0 .043-.01.064-.01z" color="#000" font-family="sans-serif" font-weight="400" overflow="visible" transform="translate(1869.392 -7866.258) scale(2.0004)"></path><path fill="#ff143a" d="M36.987 7.627c1.388 1.451 1.334 3.772-.141 5.247l-6.107 6.107a9.982 9.982 0 0 0-2.551 9.697 10.196 10.196 0 0 0 7.146 7.146c.184.05.37.074.555.114a19.086 19.01 45.003 0 0 1.332-1.207 19.086 19.01 45.003 0 0-.055-26.935 19.086 19.01 45.003 0 0-.18-.168z"></path><path fill="#d30045" style="line-height:normal;text-indent:0;text-align:start;text-decoration-line:none;text-decoration-style:solid;text-decoration-color:#000;text-transform:none;block-progression:tb;white-space:normal;isolation:auto;mix-blend-mode:normal;solid-color:#000;solid-opacity:1" d="M-908.32 3941.596c-.82-.25-1.547-.438-2.236-.52 0-.897-.023-.128.007-1.022.768.071 1.52.266 2.228.572.044.337.01.681 0 .97z" color="#000" font-family="sans-serif" font-weight="400" overflow="visible" transform="translate(1869.392 -7866.258) scale(2.0004)"></path><path fill="none" stroke="#fff" stroke-linecap="round" stroke-linejoin="round" stroke-width="2" d="m36.88 14.252-1.363 1.362m-2.726 2.725L31.428 19.7a8.902 8.902 0 0 0-2.278 8.652" opacity=".4"></path></svg>